<svg xmlns="http://www.w3.org/2000/svg" viewBox="0 0 200 200" fill="none">
  <circle cx="100" cy="100" r="100" fill="#1a1a2e"/>
  <circle cx="100" cy="100" r="96" fill="url(#gradBavneet)"/>
  <!-- Hair - long with middle part -->
  <path d="M52 90c0-32 22-55 48-55s48 23 48 55c0 0-3 65-8 75H60c-5-10-8-75-8-75z" fill="#1a1008"/>
  <!-- Middle part bangs -->
  <path d="M62 75c4-18 18-30 38-30s34 12 38 30c-6-8-18-12-38-12s-32 4-38 12z" fill="#1a1008"/>
  <!-- Long side hair -->
  <path d="M53 90c-4 25-3 50 4 65" stroke="#1a1008" stroke-width="18" stroke-linecap="round" fill="none"/>
  <path d="M147 90c4 25 3 50-4 65" stroke="#1a1008" stroke-width="18" stroke-linecap="round" fill="none"/>
  <!-- Face -->
  <ellipse cx="100" cy="98" rx="32" ry="36" fill="#d9a87a"/>
  <!-- Eyes -->
  <ellipse cx="88" cy="92" rx="4" ry="5" fill="#1a0f08"/>
  <ellipse cx="112" cy="92" rx="4" ry="5" fill="#1a0f08"/>
  <circle cx="89.5" cy="91" r="1.8" fill="white"/>
  <circle cx="113.5" cy="91" r="1.8" fill="white"/>
  <!-- Eyelashes -->
  <path d="M82 88c-2-3-1-5 1-6" stroke="#1a0f08" stroke-width="1.5" stroke-linecap="round" fill="none"/>
  <path d="M85 86c-1-3 0-5 2-5" stroke="#1a0f08" stroke-width="1.5" stroke-linecap="round" fill="none"/>
  <path d="M118 88c2-3 1-5-1-6" stroke="#1a0f08" stroke-width="1.5" stroke-linecap="round" fill="none"/>
  <path d="M115 86c1-3 0-5-2-5" stroke="#1a0f08" stroke-width="1.5" stroke-linecap="round" fill="none"/>
  <!-- Eyebrows -->
  <path d="M81 84c4-4 9-4 12-2" stroke="#1a1008" stroke-width="2.2" stroke-linecap="round" fill="none"/>
  <path d="M108 82c3-2 8-2 12 2" stroke="#1a1008" stroke-width="2.2" stroke-linecap="round" fill="none"/>
  <!-- Nose ring accent -->
  <circle cx="106" cy="102" r="1.2" fill="#ffd700" opacity="0.9"/>
  <!-- Cheek blush -->
  <circle cx="78" cy="108" r="5" fill="#ff7a80" opacity="0.25"/>
  <circle cx="122" cy="108" r="5" fill="#ff7a80" opacity="0.25"/>
  <!-- Lips -->
  <path d="M91 110c3 5 15 5 18 0" stroke="#a13c50" stroke-width="2.5" stroke-linecap="round" fill="none"/>
  <path d="M93 110c2 3 12 3 14 0" fill="#a13c50" opacity="0.45"/>
  <!-- Top -->
  <path d="M58 148c0-15 18-22 42-22s42 7 42 22v52H58v-52z" fill="#7c3aed"/>
  <!-- Round neckline -->
  <path d="M80 126c6 10 32 10 40 0" fill="#1a1a2e" stroke="none"/>
  <!-- Earrings - dangly -->
  <circle cx="65" cy="108" r="2" fill="#ffd700" opacity="0.9"/>
  <line x1="65" y1="110" x2="65" y2="116" stroke="#ffd700" stroke-width="1" opacity="0.8"/>
  <circle cx="65" cy="118" r="2" fill="#ffd700" opacity="0.9"/>
  <circle cx="135" cy="108" r="2" fill="#ffd700" opacity="0.9"/>
  <line x1="135" y1="110" x2="135" y2="116" stroke="#ffd700" stroke-width="1" opacity="0.8"/>
  <circle cx="135" cy="118" r="2" fill="#ffd700" opacity="0.9"/>
  <defs>
    <radialGradient id="gradBavneet" cx="50%" cy="40%" r="60%">
      <stop offset="0%" stop-color="#2a2a4a"/>
      <stop offset="100%" stop-color="#0f0f1e"/>
    </radialGradient>
  </defs>
</svg>
