<svg xmlns="http://www.w3.org/2000/svg" viewBox="0 0 200 200" fill="none">
  <circle cx="100" cy="100" r="100" fill="#1a1a2e"/>
  <circle cx="100" cy="100" r="96" fill="url(#grad5)"/>
  <!-- Hair - long wavy -->
  <path d="M55 85c0-30 20-52 45-52s45 22 45 52c0 0-5-25-45-25s-45 25-45 25z" fill="#2a1810"/>
  <!-- Hair sides flowing down -->
  <path d="M55 85c-3 20-2 40 5 55" stroke="#2a1810" stroke-width="18" stroke-linecap="round" fill="none"/>
  <path d="M145 85c3 20 2 40-5 55" stroke="#2a1810" stroke-width="18" stroke-linecap="round" fill="none"/>
  <!-- Face -->
  <ellipse cx="100" cy="97" rx="33" ry="37" fill="#e0b08a"/>
  <!-- Eyes with lashes -->
  <ellipse cx="88" cy="92" rx="4" ry="5" fill="#1a1a1a"/>
  <ellipse cx="112" cy="92" rx="4" ry="5" fill="#1a1a1a"/>
  <circle cx="89.5" cy="91" r="2" fill="white"/>
  <circle cx="113.5" cy="91" r="2" fill="white"/>
  <!-- Eyelashes -->
  <path d="M82 88c-2-3-1-5 1-6" stroke="#1a1a1a" stroke-width="1.5" stroke-linecap="round" fill="none"/>
  <path d="M84 86c-1-3 0-5 2-5" stroke="#1a1a1a" stroke-width="1.5" stroke-linecap="round" fill="none"/>
  <path d="M118 88c2-3 1-5-1-6" stroke="#1a1a1a" stroke-width="1.5" stroke-linecap="round" fill="none"/>
  <path d="M116 86c1-3 0-5-2-5" stroke="#1a1a1a" stroke-width="1.5" stroke-linecap="round" fill="none"/>
  <!-- Eyebrows -->
  <path d="M81 84c3-4 8-4 11-2" stroke="#2a1810" stroke-width="2" stroke-linecap="round" fill="none"/>
  <path d="M108 82c3-2 8-2 11 2" stroke="#2a1810" stroke-width="2" stroke-linecap="round" fill="none"/>
  <!-- Lips -->
  <path d="M91 108c3 5 15 5 18 0" stroke="#cc5555" stroke-width="2.5" stroke-linecap="round" fill="none"/>
  <path d="M93 108c2 3 12 3 14 0" fill="#cc5555" opacity="0.4"/>
  <!-- Blouse -->
  <path d="M58 148c0-15 18-22 42-22s42 7 42 22v52H58v-52z" fill="#8b45ff"/>
  <!-- Neckline -->
  <path d="M82 126c8 10 28 10 36 0" fill="#1a1a2e" stroke="none"/>
  <!-- Earrings -->
  <circle cx="65" cy="105" r="3" fill="#ffd700" opacity="0.7"/>
  <circle cx="135" cy="105" r="3" fill="#ffd700" opacity="0.7"/>
  <defs>
    <radialGradient id="grad5" cx="50%" cy="40%" r="60%">
      <stop offset="0%" stop-color="#2a2a4a"/>
      <stop offset="100%" stop-color="#0f0f1e"/>
    </radialGradient>
  </defs>
</svg>
