<svg xmlns="http://www.w3.org/2000/svg" viewBox="0 0 200 200" fill="none">
  <circle cx="100" cy="100" r="100" fill="#1a1a2e"/>
  <circle cx="100" cy="100" r="96" fill="url(#gradHarman)"/>
  <!-- Hair back layer -->
  <path d="M52 95c0-32 22-55 48-55s48 23 48 55c0 0-4 55-8 65H60c-4-10-8-65-8-65z" fill="#1a0f08"/>
  <!-- Front bangs -->
  <path d="M58 78c0-30 20-48 42-48s42 18 42 48c0 0-6-22-42-18-30 3-42 18-42 18z" fill="#1a0f08"/>
  <!-- Side hair strands -->
  <path d="M55 90c-2 18 0 38 6 52" stroke="#1a0f08" stroke-width="16" stroke-linecap="round" fill="none"/>
  <path d="M145 90c2 18 0 38-6 52" stroke="#1a0f08" stroke-width="16" stroke-linecap="round" fill="none"/>
  <!-- Face -->
  <ellipse cx="100" cy="97" rx="33" ry="37" fill="#e3b590"/>
  <!-- Eyes -->
  <ellipse cx="87" cy="92" rx="4" ry="5" fill="#1a1a1a"/>
  <ellipse cx="113" cy="92" rx="4" ry="5" fill="#1a1a1a"/>
  <circle cx="88.5" cy="91" r="1.8" fill="white"/>
  <circle cx="114.5" cy="91" r="1.8" fill="white"/>
  <!-- Eyelashes -->
  <path d="M81 88c-2-3-1-5 1-6" stroke="#1a1a1a" stroke-width="1.5" stroke-linecap="round" fill="none"/>
  <path d="M83 86c-1-3 0-5 2-5" stroke="#1a1a1a" stroke-width="1.5" stroke-linecap="round" fill="none"/>
  <path d="M119 88c2-3 1-5-1-6" stroke="#1a1a1a" stroke-width="1.5" stroke-linecap="round" fill="none"/>
  <path d="M117 86c1-3 0-5-2-5" stroke="#1a1a1a" stroke-width="1.5" stroke-linecap="round" fill="none"/>
  <!-- Eyebrows -->
  <path d="M80 83c4-4 9-4 12-2" stroke="#1a0f08" stroke-width="2.2" stroke-linecap="round" fill="none"/>
  <path d="M108 81c4-2 9-2 12 2" stroke="#1a0f08" stroke-width="2.2" stroke-linecap="round" fill="none"/>
  <!-- Cheek blush -->
  <circle cx="78" cy="108" r="6" fill="#ff8a80" opacity="0.25"/>
  <circle cx="122" cy="108" r="6" fill="#ff8a80" opacity="0.25"/>
  <!-- Lips -->
  <path d="M91 110c3 5 15 5 18 0" stroke="#c4485a" stroke-width="2.5" stroke-linecap="round" fill="none"/>
  <path d="M93 110c2 3 12 3 14 0" fill="#c4485a" opacity="0.45"/>
  <!-- Top -->
  <path d="M58 148c0-15 18-22 42-22s42 7 42 22v52H58v-52z" fill="#ff4500"/>
  <!-- Neckline -->
  <path d="M84 126c6 8 26 8 32 0" fill="#1a1a2e" stroke="none"/>
  <!-- Earrings -->
  <circle cx="64" cy="108" r="2.5" fill="#ffd700" opacity="0.8"/>
  <circle cx="136" cy="108" r="2.5" fill="#ffd700" opacity="0.8"/>
  <defs>
    <radialGradient id="gradHarman" cx="50%" cy="40%" r="60%">
      <stop offset="0%" stop-color="#2a2a4a"/>
      <stop offset="100%" stop-color="#0f0f1e"/>
    </radialGradient>
  </defs>
</svg>
