<svg xmlns="http://www.w3.org/2000/svg" viewBox="0 0 200 200" fill="none">
  <circle cx="100" cy="100" r="100" fill="#1a1a2e"/>
  <circle cx="100" cy="100" r="96" fill="url(#gradTammy)"/>
  <!-- Hair - shoulder length with side part -->
  <path d="M55 85c0-30 20-52 45-52s45 22 45 52c0 0-6-22-32-22-8 0-13 2-18 5-5-3-10-5-18-5-26 0-22 22-22 22z" fill="#3a2418"/>
  <!-- Side strands -->
  <path d="M55 88c-2 22 0 42 6 58" stroke="#3a2418" stroke-width="17" stroke-linecap="round" fill="none"/>
  <path d="M145 88c2 22 0 42-6 58" stroke="#3a2418" stroke-width="17" stroke-linecap="round" fill="none"/>
  <!-- Highlights -->
  <path d="M62 95c-2 16 0 30 4 42" stroke="#6b4a30" stroke-width="4" stroke-linecap="round" fill="none" opacity="0.6"/>
  <!-- Face -->
  <ellipse cx="100" cy="97" rx="32" ry="36" fill="#f0c9a0"/>
  <!-- Eyes -->
  <ellipse cx="88" cy="92" rx="4" ry="5" fill="#2a1810"/>
  <ellipse cx="112" cy="92" rx="4" ry="5" fill="#2a1810"/>
  <circle cx="89.5" cy="91" r="1.8" fill="white"/>
  <circle cx="113.5" cy="91" r="1.8" fill="white"/>
  <!-- Eyelashes -->
  <path d="M82 88c-2-3-1-5 1-6" stroke="#2a1810" stroke-width="1.5" stroke-linecap="round" fill="none"/>
  <path d="M85 86c-1-3 0-5 2-5" stroke="#2a1810" stroke-width="1.5" stroke-linecap="round" fill="none"/>
  <path d="M118 88c2-3 1-5-1-6" stroke="#2a1810" stroke-width="1.5" stroke-linecap="round" fill="none"/>
  <path d="M115 86c1-3 0-5-2-5" stroke="#2a1810" stroke-width="1.5" stroke-linecap="round" fill="none"/>
  <!-- Eyebrows - arched -->
  <path d="M81 84c4-4 9-4 12-1" stroke="#3a2418" stroke-width="2.2" stroke-linecap="round" fill="none"/>
  <path d="M107 83c3-3 8-3 12 1" stroke="#3a2418" stroke-width="2.2" stroke-linecap="round" fill="none"/>
  <!-- Cheek blush -->
  <circle cx="78" cy="108" r="6" fill="#ff7a80" opacity="0.3"/>
  <circle cx="122" cy="108" r="6" fill="#ff7a80" opacity="0.3"/>
  <!-- Lips -->
  <path d="M90 110c4 5 16 5 20 0" stroke="#d14560" stroke-width="2.5" stroke-linecap="round" fill="none"/>
  <path d="M92 110c3 3 13 3 16 0" fill="#d14560" opacity="0.5"/>
  <!-- Top -->
  <path d="M58 148c0-15 18-22 42-22s42 7 42 22v52H58v-52z" fill="#e91e63"/>
  <!-- V-neckline -->
  <path d="M84 126l16 14 16-14" fill="#1a1a2e" stroke="#1a1a2e" stroke-width="1"/>
  <!-- Earrings -->
  <circle cx="63" cy="108" r="3" fill="#c0c0c0" opacity="0.8"/>
  <circle cx="137" cy="108" r="3" fill="#c0c0c0" opacity="0.8"/>
  <defs>
    <radialGradient id="gradTammy" cx="50%" cy="40%" r="60%">
      <stop offset="0%" stop-color="#2a2a4a"/>
      <stop offset="100%" stop-color="#0f0f1e"/>
    </radialGradient>
  </defs>
</svg>
